<svg xmlns="http://www.w3.org/2000/svg" viewBox="0 0 32 32" width="32" height="32">
  <defs>
    <linearGradient id="faviconFlameOuter" x1="0%" y1="100%" x2="0%" y2="0%">
      <stop offset="0%" stop-color="#dc2626"/>
      <stop offset="35%" stop-color="#ea580c"/>
      <stop offset="75%" stop-color="#f97316"/>
      <stop offset="100%" stop-color="#facc15"/>
    </linearGradient>
    <linearGradient id="faviconFlameInner" x1="0%" y1="100%" x2="0%" y2="0%">
      <stop offset="0%" stop-color="#f97316"/>
      <stop offset="50%" stop-color="#fbbf24"/>
      <stop offset="100%" stop-color="#ffffff"/>
    </linearGradient>
    <filter id="faviconGlow" x="-20%" y="-20%" width="140%" height="140%">
      <feDropShadow dx="0" dy="1" stdDeviation="1.5" flood-color="#ea580c" flood-opacity="0.8"/>
    </filter>
  </defs>
  
  <!-- Outer flame with fire glow -->
  <path d="M16 2C16 2 11.5 7.5 11.5 12C11.5 13.5 12 14.8 12.8 15.8C10.5 14.5 9 12 9 12C9 12 6 16 6 20.5C6 26 10.5 30 16 30C21.5 30 26 26 26 20.5C26 14.5 20.5 9 20.5 9C20.5 9 20.8 12 19 13.8C19 10 16 2 16 2Z" fill="url(#faviconFlameOuter)" filter="url(#faviconGlow)"/>

  <!-- Middle dancing flame tongue -->
  <path d="M16 13C14 15 13 17.5 13 20C13 21.2 13.4 22.3 14 23.2C13.2 22 13 20.5 13.8 19C14.5 17.8 16 16.5 16.5 15C17.5 17 18 19 18 20.5C18 21.2 17.8 22 17.3 22.8C18.4 22 19 20.8 19 19.5C19 17 17.5 14.5 16 13Z" fill="#fbbf24"/>

  <!-- Inner glowing white-hot core -->
  <path d="M16 19C14.5 19 13.5 20.8 13.5 22.6C13.5 24.8 14.6 26.5 16 26.5C17.4 26.5 18.5 24.8 18.5 22.6C18.5 20.8 17.5 19 16 19Z" fill="url(#faviconFlameInner)"/>
</svg>
